<?xml version="1.0" encoding="utf-8"?>
<!-- Generator: Adobe Illustrator 22.0.0, SVG Export Plug-In . SVG Version: 6.00 Build 0)  -->
<svg version="1.1" xmlns="http://www.w3.org/2000/svg" xmlns:xlink="http://www.w3.org/1999/xlink" x="0px" y="0px"
	 viewBox="0 0 183 133" style="enable-background:new 0 0 183 133;" xml:space="preserve">
<style type="text/css">
	.st0{display:none;}
	.st1{display:inline;}
	.st2{fill:none;stroke:#000000;stroke-width:4;stroke-linecap:round;stroke-linejoin:round;stroke-miterlimit:10;}
	.st3{fill:#FFFFFF;}
	.st4{fill:none;stroke:#FFFFFF;stroke-width:3;stroke-linecap:square;stroke-miterlimit:10;}
	.st5{fill:none;stroke:#FFFFFF;stroke-miterlimit:10;}
	.st6{stroke:#FFFFFF;stroke-width:2;stroke-miterlimit:10;}
	.st7{fill:#FFFFFF;stroke:#FFFFFF;stroke-miterlimit:10;}
	.st8{stroke:#FCFAFA;stroke-width:2;stroke-miterlimit:10;}
	.st9{stroke:#FCFAFA;stroke-miterlimit:10;}
	.st10{fill:#EF564B;}
	.st11{fill:#EF564B;stroke:#FCFAFA;stroke-width:2;stroke-miterlimit:10;}
	.st12{fill:#EF564B;stroke:#FCFAFA;stroke-miterlimit:10;}
</style>
<g id="Layer_1" class="st0">
	
		<image style="display:inline;overflow:visible;" width="600" height="400" xlink:href="figure_8_bend_stopped.jpg"  transform="matrix(-1.110223e-16 -1 1 -1.110223e-16 -184.4994 426.9986)">
	</image>
</g>
<g id="Layer_2" class="st0">
	<g class="st1">
		<path class="st2" d="M6.9,44.2c0,0,40.9-87.8-63.9-110.1c-75.1-11.6-61.5,57.3-61.5,57.3s1.8,15,14.8,27.6"/>
		<path class="st2" d="M-11.5,26.2c0,0,19.4-46.6-35.3-66.2c-39.9-10.2-46.9,5.4-46.9,5.4s-11.1,16,4.6,32.6"/>
		<path class="st2" d="M-35.9,16.8c0,0,9.6-22.8-20-34.5c-4.6-2.7-27.2-7.2-25.6,2.1"/>
		<path class="st2" d="M-29,17.9c5.3,3.1,10.4,6.6,15.4,10.3c9.8,7.2,19.3,15.1,26.8,24.7c3.5,4.5,6.7,9.4,8.6,14.8
			c0.9,2.4,1.4,5,1.6,7.6c0.1,2.8-0.4,5.5-0.8,8.2C20.4,96,16.8,108.8,9,119.1c-3.9,5.2-8.9,9.7-14.6,13c-6.8,4-14.5,6.3-22.3,7.5
			c-2.3,0.4-4.6,0.6-6.9,0.8L-29,116c4,0.1,8.2-0.7,12-2.1c7.9-2.9,13.8-9,16.1-17.1c1.2-4.3,1.3-8.6,0.2-13
			c-1.1-4.4-3.2-8.5-5.6-12.3c-5.5-8.5-12.9-15.9-20.7-22.2c-6.4-5.2-13.4-10.3-21-13.6c-0.6-0.3-1.2-0.5-1.9-0.8"/>
		<path class="st2" d="M-51.8-10.9c-3.2,3.3-6.3,6.7-9.2,10.3c-6.5,7.8-12.6,16-17.8,24.7c-5.4,9.1-10.3,19.2-11.6,29.9
			c-0.7,6-0.4,12.4,0.9,18.3c0.9,4.5,2.4,8.9,4.9,12.7c2.2,3.5,5.5,7.1,9.5,8.7c0.1,0,0.1,0,0.2,0.1l10.3-20.7
			c0,0-10.5-10.7,28.8-68.4"/>
		<path class="st2" d="M-81.5,122.1c0,0-60.3-35.6-22.6-102.7"/>
		<path class="st2" d="M-83.4,160.2c0,0-5.2-51.4,27.6-100"/>
		<path class="st2" d="M-37.5,71.6c0,0-15.9,19.4-28.6,88.3"/>
		<path class="st2" d="M-43.4,163.4L-29,116c0.3,1.8,1.3-0.4,1.5-1.1c1.1-3.3,1.6-6.8,2.2-10.2c0.8-4.3,1.7-8.6,0.9-13
			c-1.3-7-5.9-13-10.8-17.9c-5-5-10.8-9.2-16.7-12.9c-3.2-2-6.6-3.9-10-5.6c-0.1,0-0.1-0.1-0.2-0.1"/>
		<path class="st2" d="M-16.7-50.5c0,0,4.4-26.1,2.1-43.7"/>
		<path class="st2" d="M-30.2-59.2c0,0,4-12.5,4.6-29.6"/>
		<path class="st2" d="M-55-65.6c0,0,1.8-8.3,1.5-19.5"/>
	</g>
</g>
<g id="Layer_3">
	<g>
		<path d="M-910-81.1l-13.6-1.9c0,0.1-0.4,2.5-1.4,6.3l13.2,4C-910.5-77.5-910-80.6-910-81.1z M-967.3,20.2c-2.4,1.7-4.7,3.4-7,5.1
			c-4.3,3.1-8.5,6.2-12.6,9.4l6.4,12.5c4.4-3.6,9.2-7,14.3-10.7c1.3-0.9,2.5-1.8,3.8-2.8l0,0L-967.3,20.2z M-950.1-33.6
			c-3,2.6-6.3,5.1-10,7.3c-3.7,2.2-7.4,4.3-10.9,6.2l5.5,12.7c4-2.2,8.1-4.5,12.4-7.1c3.7-2.2,7.1-4.6,10.2-7.2L-950.1-33.6z
			 M-967.3,20.2c-2.4,1.7-4.7,3.4-7,5.1c-4.3,3.1-8.5,6.2-12.6,9.4l6.4,12.5c4.4-3.6,9.2-7,14.3-10.7c1.3-0.9,2.5-1.8,3.8-2.8l0,0
			L-967.3,20.2z M-950.1-33.6c-3,2.6-6.3,5.1-10,7.3c-3.7,2.2-7.4,4.3-10.9,6.2l5.5,12.7c4-2.2,8.1-4.5,12.4-7.1
			c3.7-2.2,7.1-4.6,10.2-7.2L-950.1-33.6z M-950.1-33.6c-3,2.6-6.3,5.1-10,7.3c-3.7,2.2-7.4,4.3-10.9,6.2l5.5,12.7
			c4-2.2,8.1-4.5,12.4-7.1c3.7-2.2,7.1-4.6,10.2-7.2L-950.1-33.6z M-950.1-33.6c-3,2.6-6.3,5.1-10,7.3c-3.7,2.2-7.4,4.3-10.9,6.2
			l5.5,12.7c4-2.2,8.1-4.5,12.4-7.1c3.7-2.2,7.1-4.6,10.2-7.2L-950.1-33.6z M-1001,47.2c-6.2,6.6-11.7,14.3-15.9,23.9l12.5,5.7
			c2.9-6.7,6.4-12.2,10.6-17l0,0L-1001,47.2z M-1018.5,74.9c-0.7,1.9-1.4,3.8-2,5.8l13.1,4.1c0.4-1.4,0.9-2.8,1.4-4.2L-1018.5,74.9z
			 M-950.1-33.6c-3,2.6-6.3,5.1-10,7.3c-3.7,2.2-7.4,4.3-10.9,6.2l5.5,12.7c4-2.2,8.1-4.5,12.4-7.1c3.7-2.2,7.1-4.6,10.2-7.2
			L-950.1-33.6z M-950.1-33.6c-3,2.6-6.3,5.1-10,7.3c-3.7,2.2-7.4,4.3-10.9,6.2l5.5,12.7c4-2.2,8.1-4.5,12.4-7.1
			c3.7-2.2,7.1-4.6,10.2-7.2L-950.1-33.6z M-948.9,23.3C-948.9,23.3-948.9,23.3-948.9,23.3c0.6-0.4,1.1-0.9,1.6-1.3
			c2.4-2,4.9-4.1,7.4-6.4c16.2-14.9,16.1-34.3,8.5-48.9c0,0,0,0,0-0.1l-8.6-11.5C-950.2-55-963.8-58-975-52
			c-6.4,3.4-10.7,8.9-12.4,15.8c-1.7,7.3-0.3,15.4,2.2,22.9l0,0l6.1,13.9c0,0,0,0,0,0c2.8,5.2,5.3,8.8,6,9.8
			c0.3,0.5,0.7,0.9,1.2,1.3c2.5,2.1,4.6,4.6,6.2,7.4c-0.1,0.1-0.2,0.2-0.3,0.2l0.4-0.2l4.9,13.7l-0.1,0.1c1.1,7.6-0.1,14.7-3.2,18.4
			c-4.4,5.4-12.6,1.3-18.2-2.6c0,0,0,0,0,0l0,0l0,0l-6.4-12.5l0,0l0,0c-5.5-13.6-4.2-20-2.4-23.7c1.8-3.9,5.5-7.3,10.5-10.7
			l-5.6-12.8c-7.8,5-13.9,10.3-17.4,17.7c-4.7,10.1-3.5,22.4,4,39.2c0,0,0,0,0,0l7.1,12.5c0,0,0,0,0,0c23.2,17.7,35.8,5.8,39.1,1.7
			C-946.6,51.5-944.9,36.9-948.9,23.3z M-954.8,10.4c-2.1-3.2-4.5-6.1-7.4-8.7c-1.3-1.9-3.1-4.8-4.9-8.1l0,0l-5.4-12.7c0,0,0,0,0,0
			c-1.6-4.9-2.3-9.8-1.4-13.8c0.7-3,2.5-5.2,5.4-6.8c4-2.1,8.3-1.8,12.2,0c2.6,1.2,5.1,3,7.3,5.2c0,0,0,0,0,0l7.3,11.9l0,0
			c2.9,8.7,2.1,19.2-7.5,28.1c-1.3,1.2-2.7,2.4-4.1,3.6C-953.8,9.5-954.3,9.9-954.8,10.4L-954.8,10.4z M-960.1-26.3
			c-3.7,2.2-7.4,4.3-10.9,6.2l5.5,12.7c4-2.2,8.1-4.5,12.4-7.1c3.7-2.2,7.1-4.6,10.2-7.2l-7.3-11.9C-953.1-31-956.4-28.5-960.1-26.3
			z M-950.1-33.6c-3,2.6-6.3,5.1-10,7.3c-3.7,2.2-7.4,4.3-10.9,6.2l5.5,12.7c4-2.2,8.1-4.5,12.4-7.1c3.7-2.2,7.1-4.6,10.2-7.2
			L-950.1-33.6z M-967.3,20.2c-2.4,1.7-4.7,3.4-7,5.1c-4.3,3.1-8.5,6.2-12.6,9.4l6.4,12.5c4.4-3.6,9.2-7,14.3-10.7
			c1.3-0.9,2.5-1.8,3.8-2.8l0,0L-967.3,20.2z M-950.1-33.6c-3,2.6-6.3,5.1-10,7.3c-3.7,2.2-7.4,4.3-10.9,6.2l5.5,12.7
			c4-2.2,8.1-4.5,12.4-7.1c3.7-2.2,7.1-4.6,10.2-7.2L-950.1-33.6z M-950.1-33.6c-3,2.6-6.3,5.1-10,7.3c-3.7,2.2-7.4,4.3-10.9,6.2
			l5.5,12.7c4-2.2,8.1-4.5,12.4-7.1c3.7-2.2,7.1-4.6,10.2-7.2L-950.1-33.6z M-967.3,20.2c-2.4,1.7-4.7,3.4-7,5.1
			c-4.3,3.1-8.5,6.2-12.6,9.4l6.4,12.5c4.4-3.6,9.2-7,14.3-10.7c1.3-0.9,2.5-1.8,3.8-2.8l0,0L-967.3,20.2z M-950.1-33.6
			c-3,2.6-6.3,5.1-10,7.3c-3.7,2.2-7.4,4.3-10.9,6.2l5.5,12.7c4-2.2,8.1-4.5,12.4-7.1c3.7-2.2,7.1-4.6,10.2-7.2L-950.1-33.6z
			 M-950.1-33.6c-3,2.6-6.3,5.1-10,7.3c-3.7,2.2-7.4,4.3-10.9,6.2l5.5,12.7c4-2.2,8.1-4.5,12.4-7.1c3.7-2.2,7.1-4.6,10.2-7.2
			L-950.1-33.6z M-967.3,20.2c-2.4,1.7-4.7,3.4-7,5.1c-4.3,3.1-8.5,6.2-12.6,9.4l6.4,12.5c4.4-3.6,9.2-7,14.3-10.7
			c1.3-0.9,2.5-1.8,3.8-2.8l0,0L-967.3,20.2z M-912.9-68.8l-13.2-4c-2.2,7.1-6,16.9-12.7,26.3l8.6,11.6
			C-920.8-46.9-915.6-59.7-912.9-68.8z M-967.3,20.2c-2.4,1.7-4.7,3.4-7,5.1c-4.3,3.1-8.5,6.2-12.6,9.4l6.4,12.5
			c4.4-3.6,9.2-7,14.3-10.7c1.3-0.9,2.5-1.8,3.8-2.8l0,0L-967.3,20.2z M-950.1-33.6c-3,2.6-6.3,5.1-10,7.3
			c-3.7,2.2-7.4,4.3-10.9,6.2l5.5,12.7c4-2.2,8.1-4.5,12.4-7.1c3.7-2.2,7.1-4.6,10.2-7.2L-950.1-33.6z"/>
	</g>
	<g>
		<polygon class="st3" points="-947.2,22.1 -948.9,23.4 -948.9,23.3 -954.8,10.4 -953.3,9 -953.3,9.1 -947.3,22 		"/>
	</g>
	<g>
		<path class="st3" d="M-982.2,48.5L-982.2,48.5L-982.2,48.5C-982.2,48.5-982.2,48.5-982.2,48.5z"/>
	</g>
	<path class="st4" d="M-949.4-34"/>
	<path class="st4" d="M-942.6-21.9"/>
	<path class="st5" d="M-904.5-17.6"/>
	<g>
		<path class="st6" d="M63.3-147.6h11.9v21.2l17.8-21.2h14.2l-22.5,26l21.4,28.7H91.7L75.2-115v22.1H63.3V-147.6z"/>
		<path class="st6" d="M99.8-147.6h14l22.7,38.4v-38.4h10.9v54.7h-13.8l-22.8-38.6v38.6H99.8V-147.6z"/>
		<path class="st6" d="M155.4-95.4c-4.1-2.4-7.3-5.7-9.6-9.9c-2.3-4.3-3.4-9.2-3.4-14.7c0-5.6,1.1-10.5,3.4-14.8
			c2.2-4.3,5.4-7.6,9.5-9.9c4.1-2.4,8.9-3.5,14.3-3.5c5.4,0,10.1,1.2,14.2,3.5c4.1,2.3,7.3,5.6,9.5,9.8c2.2,4.2,3.4,9.1,3.4,14.6
			c0,5.6-1.1,10.6-3.4,14.9c-2.2,4.3-5.4,7.6-9.5,10c-4.1,2.4-8.8,3.6-14.2,3.6C164.2-91.9,159.5-93,155.4-95.4z M180.4-107.1
			c2.7-3.2,4.1-7.5,4.1-12.9c0-3.5-0.6-6.6-1.8-9.3c-1.2-2.7-3-4.8-5.3-6.2c-2.3-1.5-4.9-2.2-7.8-2.2c-2.9,0-5.5,0.7-7.8,2.2
			c-2.3,1.5-4,3.5-5.3,6.2c-1.2,2.7-1.8,5.8-1.8,9.3c0,3.5,0.6,6.6,1.8,9.3c1.2,2.7,3,4.8,5.2,6.2c2.2,1.5,4.8,2.2,7.8,2.2
			C174.1-102.3,177.7-103.9,180.4-107.1z"/>
		<path class="st6" d="M201.4-137.3h-14.9v-10.3h41.7v10.3h-14.8v44.4h-12V-137.3z"/>
		<g>
			<path d="M18.7-92.5c-4.7-4.1-7-9.7-7-17c0-4.5,0.9-8.5,2.7-12c1.8-3.6,4.4-6.5,7.9-9c-5-4.6-7.5-10.1-7.5-16.5
				c0-4.5,1.1-8.2,3.4-11.4c2.3-3.1,5.3-5.5,9.1-7.2c3.8-1.6,8.1-2.5,12.8-2.5c7,0,12.7,1.8,17.4,5.3c4.6,3.5,6.9,8.3,6.9,14.4
				c0,3.5-0.8,6.9-2.3,10c-1.6,3.2-3.7,6-6.5,8.6c3.6,2.3,6.4,5,8.5,8.1c2.1,3.1,3.1,7,3.1,11.6c0,7.1-2.5,12.8-7.6,17.1
				c-5.1,4.3-12,6.5-20.9,6.5C30-86.4,23.4-88.4,18.7-92.5z M48.2-102.4c2-1.5,3-3.6,3-6.3c0-3-1.1-5.3-3.3-7.1
				c-2.2-1.8-5.7-3.7-10.5-5.8l-4.3-2c-2,1.8-3.4,3.8-4.4,6c-1,2.2-1.5,4.4-1.5,6.6c0,3.4,1.1,6,3.3,7.9c2.2,1.9,5.3,2.9,9.3,2.9
				C43.4-100.1,46.2-100.9,48.2-102.4z M47.7-140.2c0.8-1.8,1.2-3.7,1.2-5.6c0-2.9-1-5.1-2.9-6.5c-1.9-1.4-4.2-2.2-6.7-2.2
				c-2.3,0-4.4,0.6-6,1.8c-1.7,1.2-2.5,2.9-2.5,5.2c0,2.7,1.1,4.8,3.3,6.5c2.2,1.6,5.7,3.5,10.4,5.6
				C45.8-136.8,46.9-138.3,47.7-140.2z"/>
		</g>
		<path id="outline_2_" class="st7" d="M64.6-121.9c-2-3-4.7-5.6-8-7.8c2.5-2.5,4.5-5.3,6-8.2c1.6-3.2,2.4-6.7,2.4-10.3
			c0-6.3-2.4-11.3-7.2-14.9c-4.7-3.6-10.7-5.4-17.7-5.4c-4.8,0-9.1,0.8-13,2.5c-3.9,1.7-7.1,4.2-9.4,7.4c-2.3,3.2-3.5,7.2-3.5,11.7
			c0,6.3,2.4,11.9,7.2,16.5c-3.2,2.4-5.7,5.3-7.4,8.8C12-118.2,11-114,11-109.5c0,7.4,2.4,13.3,7.3,17.5c4.8,4.1,11.6,6.3,20.4,6.3
			c8.9,0,16.1-2.2,21.3-6.6c5.2-4.4,7.8-10.3,7.8-17.6C67.8-114.7,66.7-118.7,64.6-121.9z M59.1-93.3C54.2-89.2,47.3-87,38.6-87
			c-8.4,0-15-2-19.5-5.9c-4.5-3.9-6.8-9.5-6.8-16.5c0-4.3,0.9-8.3,2.6-11.7c1.7-3.3,4.2-6.2,7.3-8.5l9.8,6.3c-1.7,1.7-3.1,3.6-4,5.7
			c-1,2.3-1.5,4.6-1.5,6.9c0,3.5,1.2,6.4,3.6,8.4c2.3,2,5.6,3,9.7,3c3.7,0,6.7-0.8,8.8-2.4c2.1-1.6,3.2-3.9,3.2-6.8
			c0-3.2-1.2-5.7-3.6-7.6c-2.3-1.8-5.8-3.8-10.6-5.9l-4.3-2L22.6-131c-4.8-4.5-7.3-9.9-7.3-16c0-4.3,1.1-8,3.3-11
			c2.2-3,5.2-5.4,8.9-6.9c3.7-1.6,8-2.4,12.5-2.4c6.8,0,12.5,1.7,17,5.2c4.4,3.4,6.7,8.1,6.7,13.9c0,3.4-0.8,6.7-2.3,9.8
			c-1.5,3-3.5,5.7-6,8.1l-10-5.2c1.2-1.3,2.1-2.7,2.8-4.3v0c0.8-1.9,1.2-3.9,1.2-5.8c0-3.1-1.1-5.4-3.1-7c-2-1.5-4.4-2.3-7.1-2.3
			c-2.5,0-4.6,0.6-6.4,1.9c-1.9,1.3-2.8,3.2-2.8,5.7c0,2.9,1.2,5.2,3.6,7c2.2,1.7,5.8,3.6,10.5,5.7l11.1,5.7
			c3.5,2.2,6.3,4.9,8.3,7.9c2,3,3,6.8,3,11.3C66.5-103.1,64-97.5,59.1-93.3z M37.1-121c4.7,2.1,8.2,4,10.4,5.7
			c2.1,1.6,3.1,3.8,3.1,6.6c0,2.5-0.9,4.4-2.7,5.8c-1.9,1.4-4.6,2.2-8,2.2c-3.8,0-6.8-0.9-8.9-2.7c-2.1-1.8-3.1-4.2-3.1-7.4
			c0-2.1,0.5-4.2,1.4-6.4c0.9-2,2.2-3.9,3.9-5.5L37.1-121z M34.4-141.6c-2.1-1.5-3.1-3.5-3.1-5.9c0-2.1,0.7-3.6,2.3-4.6
			c1.6-1.1,3.5-1.6,5.7-1.6c2.4,0,4.6,0.7,6.4,2c1.8,1.3,2.6,3.3,2.6,6c0,1.8-0.4,3.6-1.1,5.3c-0.7,1.6-1.6,3-2.8,4.2
			C39.8-138.2,36.5-140,34.4-141.6z"/>
		<path class="st8" d="M46.2-179.2l10.9,3.1c-4.4,16.3-11.2,33.2-14.5,39.3c-5.2-0.9-7.1-4.5-9.6-5.6
			C36.4-148.3,42.2-163.5,46.2-179.2z"/>
		<path class="st9" d="M60.3-190.3c-0.4,2.6-1,5.4-1.7,8.2l-10.9-3.1c0.7-3,1.3-6,1.7-8.9L60.3-190.3z"/>
		<path class="st8" d="M36.3-80.1l-11.2-1.8c2.4-16.7,7.2-34.3,9.8-40.8c5.2,1.4,8,3.5,9.9,5C42.2-111.3,38.5-96.2,36.3-80.1z"/>
		<path class="st9" d="M23.7-67.5c0.1-2.7,0.3-5.5,0.7-8.4l11.2,1.8C35.3-71,35-68,34.9-65L23.7-67.5z"/>
	</g>
	<g>
		<path class="st10" d="M7.7,104.5c-4.7-4.1-7-9.7-7-17c0-4.5,0.9-8.5,2.7-12c1.8-3.6,4.4-6.5,7.9-9c-5-4.6-7.5-10.1-7.5-16.5
			c0-4.5,1.1-8.2,3.4-11.4c2.3-3.1,5.3-5.5,9.1-7.2C20.1,29.8,24.4,29,29,29c7,0,12.7,1.8,17.4,5.3c4.6,3.5,6.9,8.3,6.9,14.4
			c0,3.5-0.8,6.9-2.3,10c-1.6,3.2-3.7,6-6.5,8.6c3.6,2.3,6.4,5,8.5,8.1c2.1,3.1,3.1,7,3.1,11.6c0,7.1-2.5,12.8-7.6,17.1
			c-5.1,4.3-12,6.5-20.9,6.5C19,110.6,12.4,108.6,7.7,104.5z M37.2,94.6c2-1.5,3-3.6,3-6.3c0-3-1.1-5.3-3.3-7.1
			c-2.2-1.8-5.7-3.7-10.5-5.8l-4.3-2c-2,1.8-3.4,3.8-4.4,6c-1,2.2-1.5,4.4-1.5,6.6c0,3.4,1.1,6,3.3,7.9c2.2,1.9,5.3,2.9,9.3,2.9
			C32.4,96.9,35.2,96.1,37.2,94.6z M36.7,56.8c0.8-1.8,1.2-3.7,1.2-5.6c0-2.9-1-5.1-2.9-6.5c-1.9-1.4-4.2-2.2-6.7-2.2
			c-2.3,0-4.4,0.6-6,1.8c-1.7,1.2-2.5,2.9-2.5,5.2c0,2.7,1.1,4.8,3.3,6.5c2.2,1.6,5.7,3.5,10.4,5.6C34.8,60.2,35.9,58.7,36.7,56.8z"
			/>
	</g>
	<path id="outline_1_" class="st7" d="M53.6,75.1c-2-3-4.7-5.6-8-7.8c2.5-2.5,4.5-5.3,6-8.2c1.6-3.2,2.4-6.7,2.4-10.3
		c0-6.3-2.4-11.3-7.2-14.9c-4.7-3.6-10.7-5.4-17.7-5.4c-4.8,0-9.1,0.8-13,2.5c-3.9,1.7-7.1,4.2-9.4,7.4C4.3,41.4,3.1,45.4,3.1,50
		c0,6.3,2.4,11.9,7.2,16.5c-3.2,2.4-5.7,5.3-7.4,8.8C1,78.8,0,83,0,87.5c0,7.4,2.4,13.3,7.3,17.5c4.8,4.1,11.6,6.3,20.4,6.3
		c8.9,0,16.1-2.2,21.3-6.6c5.2-4.4,7.8-10.3,7.8-17.6C56.8,82.3,55.7,78.3,53.6,75.1z M48.1,103.7c-4.9,4.2-11.8,6.3-20.5,6.3
		c-8.4,0-15-2-19.5-5.9c-4.5-3.9-6.8-9.5-6.8-16.5c0-4.3,0.9-8.3,2.6-11.7c1.7-3.3,4.2-6.2,7.3-8.5l9.8,6.3c-1.7,1.7-3.1,3.6-4,5.7
		c-1,2.3-1.5,4.6-1.5,6.9c0,3.5,1.2,6.4,3.6,8.4c2.3,2,5.6,3,9.7,3c3.7,0,6.7-0.8,8.8-2.4c2.1-1.6,3.2-3.9,3.2-6.8
		c0-3.2-1.2-5.7-3.6-7.6c-2.3-1.8-5.8-3.8-10.6-5.9l-4.3-2L11.6,66c-4.8-4.5-7.3-9.9-7.3-16c0-4.3,1.1-8,3.3-11
		c2.2-3,5.2-5.4,8.9-6.9c3.7-1.6,8-2.4,12.5-2.4c6.8,0,12.5,1.7,17,5.2c4.4,3.4,6.7,8.1,6.7,13.9c0,3.4-0.8,6.7-2.3,9.8
		c-1.5,3-3.5,5.7-6,8.1l-10-5.2c1.2-1.3,2.1-2.7,2.8-4.3v0c0.8-1.9,1.2-3.9,1.2-5.8c0-3.1-1.1-5.4-3.1-7c-2-1.5-4.4-2.3-7.1-2.3
		c-2.5,0-4.6,0.6-6.4,1.9C20,45.1,19,47,19,49.5c0,2.9,1.2,5.2,3.6,7c2.2,1.7,5.8,3.6,10.5,5.7l11.1,5.7c3.5,2.2,6.3,4.9,8.3,7.9
		c2,3,3,6.8,3,11.3C55.5,93.9,53,99.5,48.1,103.7z M26.1,76c4.7,2.1,8.2,4,10.4,5.7c2.1,1.6,3.1,3.8,3.1,6.6c0,2.5-0.9,4.4-2.7,5.8
		c-1.9,1.4-4.6,2.2-8,2.2c-3.8,0-6.8-0.9-8.9-2.7c-2.1-1.8-3.1-4.2-3.1-7.4c0-2.1,0.5-4.2,1.4-6.4c0.9-2,2.2-3.9,3.9-5.5L26.1,76z
		 M23.4,55.4c-2.1-1.5-3.1-3.5-3.1-5.9c0-2.1,0.7-3.6,2.3-4.6c1.6-1.1,3.5-1.6,5.7-1.6c2.4,0,4.6,0.7,6.4,2c1.8,1.3,2.6,3.3,2.6,6
		c0,1.8-0.4,3.6-1.1,5.3c-0.7,1.6-1.6,3-2.8,4.2C28.8,58.8,25.5,57,23.4,55.4z"/>
	<path class="st11" d="M35.2,17.8l10.9,3.1c-4.4,16.3-11.2,33.2-14.5,39.3c-5.2-0.9-7.1-4.5-9.6-5.6C25.4,48.7,31.2,33.5,35.2,17.8z
		"/>
	<path class="st12" d="M49.3,6.7c-0.4,2.6-1,5.4-1.7,8.2l-10.9-3.1c0.7-3,1.3-6,1.7-8.9L49.3,6.7z"/>
	<path class="st11" d="M25.3,116.9l-11.2-1.8c2.4-16.7,7.2-34.3,9.8-40.8c5.2,1.4,8,3.5,9.9,5C31.2,85.7,27.5,100.8,25.3,116.9z"/>
	<path class="st12" d="M12.7,129.5c0.1-2.7,0.3-5.5,0.7-8.4l11.2,1.8c-0.3,3.1-0.5,6.1-0.7,9L12.7,129.5z"/>
	<g>
		<path d="M72.2,80.6v13.6h-8.6V49.9h8.6v24.5L82,63h10.1L79.7,77l13.2,16.9l-9.3,1.3L72.2,80.6z"/>
		<path d="M93.3,63h8.4v5.4c1.3-2.1,2.8-3.7,4.5-4.7c1.7-1,3.7-1.5,5.9-1.5c3.4,0,6,1,7.9,3c1.9,2,2.9,4.8,2.9,8.3v20.8h-8.6V74.8
			c0-1.6-0.4-2.9-1.2-3.8c-0.8-0.9-1.9-1.4-3.3-1.4c-1.6,0-3.2,0.6-4.6,1.8c-1.5,1.2-2.6,2.8-3.3,4.6v18.2h-8.6V63z"/>
		<path d="M133.3,93.1c-2.4-1.4-4.3-3.3-5.6-5.8c-1.3-2.5-2-5.4-2-8.7c0-3.3,0.7-6.2,2-8.7c1.3-2.5,3.2-4.4,5.6-5.8
			c2.4-1.4,5.2-2.1,8.3-2.1c3.2,0,5.9,0.7,8.3,2c2.4,1.4,4.3,3.3,5.6,5.7c1.3,2.5,2,5.3,2,8.6c0,3.3-0.7,6.2-2,8.7
			c-1.3,2.5-3.2,4.5-5.6,5.9c-2.4,1.4-5.2,2.1-8.3,2.1C138.5,95.2,135.7,94.5,133.3,93.1z M146.8,85.2c1.3-1.7,2-3.9,2-6.6
			c0-2.8-0.7-4.9-2-6.6c-1.3-1.6-3.1-2.5-5.3-2.5s-3.9,0.8-5.3,2.5c-1.3,1.6-2,3.8-2,6.6c0,2.8,0.7,5,2,6.6c1.3,1.7,3.1,2.5,5.3,2.5
			S145.5,86.9,146.8,85.2z"/>
		<path d="M165,92.9c-1.6-1.5-2.4-3.6-2.4-6.3V70.3h-4.9V63h4.9v-6.7c2.9-0.5,5.7-0.8,8.5-1.1V63h7.9v7.3h-7.9v14.8
			c0,0.8,0.3,1.5,0.8,1.9s1.2,0.7,2.2,0.7c1.1,0,2.4-0.3,3.9-0.8l1.9,6.4c-2.6,1.2-5.3,1.8-8,1.8C168.9,95.2,166.6,94.4,165,92.9z"
			/>
	</g>
</g>
</svg>
