<?xml version="1.0" encoding="utf-8"?>
<!-- Generator: Adobe Illustrator 22.0.0, SVG Export Plug-In . SVG Version: 6.00 Build 0)  -->
<svg version="1.1" id="Layer_1" xmlns="http://www.w3.org/2000/svg" xmlns:xlink="http://www.w3.org/1999/xlink" x="0px" y="0px"
	 viewBox="0 0 57 133" style="enable-background:new 0 0 57 133;" xml:space="preserve">
<style type="text/css">
	.st0{display:none;}
	.st1{display:inline;}
	.st2{fill:none;stroke:#000000;stroke-width:4;stroke-linecap:round;stroke-linejoin:round;stroke-miterlimit:10;}
	.st3{fill:#EF564B;}
	.st4{fill:#FFFFFF;stroke:#FFFFFF;stroke-miterlimit:10;}
	.st5{fill:#FCFAFA;}
</style>
<g id="Layer_1_1_" class="st0">
	
		<image style="display:inline;overflow:visible;enable-background:new    ;" width="600" height="400" xlink:href="figure_8_bend_stopped.jpg"  transform="matrix(-1.608123e-16 -1 1 -1.608123e-16 -184.4994 426.9986)">
	</image>
</g>
<g id="Layer_2_1_" class="st0">
	<g class="st1">
		<path class="st2" d="M6.9,44.2c0,0,40.9-87.8-63.9-110.1c-75.1-11.6-61.5,57.3-61.5,57.3s1.8,15,14.8,27.6"/>
		<path class="st2" d="M-11.5,26.2c0,0,19.4-46.6-35.3-66.2c-39.9-10.2-46.9,5.4-46.9,5.4s-11.1,16,4.6,32.6"/>
		<path class="st2" d="M-35.9,16.8c0,0,9.6-22.8-20-34.5c-4.6-2.7-27.2-7.2-25.6,2.1"/>
		<path class="st2" d="M-29,17.9c5.3,3.1,10.4,6.6,15.4,10.3c9.8,7.2,19.3,15.1,26.8,24.7c3.5,4.5,6.7,9.4,8.6,14.8
			c0.9,2.4,1.4,5,1.6,7.6c0.1,2.8-0.4,5.5-0.8,8.2C20.4,96,16.8,108.8,9,119.1c-3.9,5.2-8.9,9.7-14.6,13c-6.8,4-14.5,6.3-22.3,7.5
			c-2.3,0.4-4.6,0.6-6.9,0.8L-29,116c4,0.1,8.2-0.7,12-2.1c7.9-2.9,13.8-9,16.1-17.1c1.2-4.3,1.3-8.6,0.2-13s-3.2-8.5-5.6-12.3
			C-11.8,63-19.2,55.6-27,49.3c-6.4-5.2-13.4-10.3-21-13.6c-0.6-0.3-1.2-0.5-1.9-0.8"/>
		<path class="st2" d="M-51.8-10.9C-55-7.6-58.1-4.2-61-0.6c-6.5,7.8-12.6,16-17.8,24.7c-5.4,9.1-10.3,19.2-11.6,29.9
			c-0.7,6-0.4,12.4,0.9,18.3c0.9,4.5,2.4,8.9,4.9,12.7c2.2,3.5,5.5,7.1,9.5,8.7c0.1,0,0.1,0,0.2,0.1l10.3-20.7
			c0,0-10.5-10.7,28.8-68.4"/>
		<path class="st2" d="M-81.5,122.1c0,0-60.3-35.6-22.6-102.7"/>
		<path class="st2" d="M-83.4,160.2c0,0-5.2-51.4,27.6-100"/>
		<path class="st2" d="M-37.5,71.6c0,0-15.9,19.4-28.6,88.3"/>
		<path class="st2" d="M-43.4,163.4L-29,116c0.3,1.8,1.3-0.4,1.5-1.1c1.1-3.3,1.6-6.8,2.2-10.2c0.8-4.3,1.7-8.6,0.9-13
			c-1.3-7-5.9-13-10.8-17.9c-5-5-10.8-9.2-16.7-12.9c-3.2-2-6.6-3.9-10-5.6c-0.1,0-0.1-0.1-0.2-0.1"/>
		<path class="st2" d="M-16.7-50.5c0,0,4.4-26.1,2.1-43.7"/>
		<path class="st2" d="M-30.2-59.2c0,0,4-12.5,4.6-29.6"/>
		<path class="st2" d="M-55-65.6c0,0,1.8-8.3,1.5-19.5"/>
	</g>
</g>
<g id="Layer_3">
	<g>
		<path class="st3" d="M7.7,104.5c-4.7-4.1-7-9.7-7-17c0-4.5,0.9-8.5,2.7-12c1.8-3.6,4.4-6.5,7.9-9c-5-4.6-7.5-10.1-7.5-16.5
			c0-4.5,1.1-8.2,3.4-11.4c2.3-3.1,5.3-5.5,9.1-7.2C20.1,29.8,24.4,29,29,29c7,0,12.7,1.8,17.4,5.3c4.6,3.5,6.9,8.3,6.9,14.4
			c0,3.5-0.8,6.9-2.3,10c-1.6,3.2-3.7,6-6.5,8.6c3.6,2.3,6.4,5,8.5,8.1s3.1,7,3.1,11.6c0,7.1-2.5,12.8-7.6,17.1
			c-5.1,4.3-12,6.5-20.9,6.5C19,110.6,12.4,108.6,7.7,104.5z M37.2,94.6c2-1.5,3-3.6,3-6.3c0-3-1.1-5.3-3.3-7.1
			c-2.2-1.8-5.7-3.7-10.5-5.8l-4.3-2c-2,1.8-3.4,3.8-4.4,6s-1.5,4.4-1.5,6.6c0,3.4,1.1,6,3.3,7.9s5.3,2.9,9.3,2.9
			C32.4,96.9,35.2,96.1,37.2,94.6z M36.7,56.8c0.8-1.8,1.2-3.7,1.2-5.6c0-2.9-1-5.1-2.9-6.5s-4.2-2.2-6.7-2.2c-2.3,0-4.4,0.6-6,1.8
			c-1.7,1.2-2.5,2.9-2.5,5.2c0,2.7,1.1,4.8,3.3,6.5c2.2,1.6,5.7,3.5,10.4,5.6C34.8,60.2,35.9,58.7,36.7,56.8z"/>
	</g>
	<path id="outline_1_" class="st4" d="M53.6,75.1c-2-3-4.7-5.6-8-7.8c2.5-2.5,4.5-5.3,6-8.2c1.6-3.2,2.4-6.7,2.4-10.3
		c0-6.3-2.4-11.3-7.2-14.9c-4.7-3.6-10.7-5.4-17.7-5.4c-4.8,0-9.1,0.8-13,2.5c-3.9,1.7-7.1,4.2-9.4,7.4c-2.4,3-3.6,7-3.6,11.6
		c0,6.3,2.4,11.9,7.2,16.5c-3.2,2.4-5.7,5.3-7.4,8.8C1,78.8,0,83,0,87.5c0,7.4,2.4,13.3,7.3,17.5c4.8,4.1,11.6,6.3,20.4,6.3
		c8.9,0,16.1-2.2,21.3-6.6s7.8-10.3,7.8-17.6C56.8,82.3,55.7,78.3,53.6,75.1z M48.1,103.7c-4.9,4.2-11.8,6.3-20.5,6.3
		c-8.4,0-15-2-19.5-5.9s-6.8-9.5-6.8-16.5c0-4.3,0.9-8.3,2.6-11.7c1.7-3.3,4.2-6.2,7.3-8.5l9.8,6.3c-1.7,1.7-3.1,3.6-4,5.7
		c-1,2.3-1.5,4.6-1.5,6.9c0,3.5,1.2,6.4,3.6,8.4c2.3,2,5.6,3,9.7,3c3.7,0,6.7-0.8,8.8-2.4s3.2-3.9,3.2-6.8c0-3.2-1.2-5.7-3.6-7.6
		c-2.3-1.8-5.8-3.8-10.6-5.9l-4.3-2l-10.7-7c-4.8-4.5-7.3-9.9-7.3-16c0-4.3,1.1-8,3.3-11s5.2-5.4,8.9-6.9c3.7-1.6,8-2.4,12.5-2.4
		c6.8,0,12.5,1.7,17,5.2c4.4,3.4,6.7,8.1,6.7,13.9c0,3.4-0.8,6.7-2.3,9.8c-1.5,3-3.5,5.7-6,8.1l-10-5.2c1.2-1.3,2.1-2.7,2.8-4.3l0,0
		c0.8-1.9,1.2-3.9,1.2-5.8c0-3.1-1.1-5.4-3.1-7c-2-1.5-4.4-2.3-7.1-2.3c-2.5,0-4.6,0.6-6.4,1.9C20,45.1,19,47,19,49.5
		c0,2.9,1.2,5.2,3.6,7c2.2,1.7,5.8,3.6,10.5,5.7l11.1,5.7c3.5,2.2,6.3,4.9,8.3,7.9s3,6.8,3,11.3C55.5,93.9,53,99.5,48.1,103.7z
		 M26.1,76c4.7,2.1,8.2,4,10.4,5.7c2.1,1.6,3.1,3.8,3.1,6.6c0,2.5-0.9,4.4-2.7,5.8c-1.9,1.4-4.6,2.2-8,2.2c-3.8,0-6.8-0.9-8.9-2.7
		c-2.1-1.8-3.1-4.2-3.1-7.4c0-2.1,0.5-4.2,1.4-6.4c0.9-2,2.2-3.9,3.9-5.5L26.1,76z M23.4,55.4c-2.1-1.5-3.1-3.5-3.1-5.9
		c0-2.1,0.7-3.6,2.3-4.6c1.6-1.1,3.5-1.6,5.7-1.6c2.4,0,4.6,0.7,6.4,2c1.8,1.3,2.6,3.3,2.6,6c0,1.8-0.4,3.6-1.1,5.3
		c-0.7,1.6-1.6,3-2.8,4.2C28.8,58.8,25.5,57,23.4,55.4z"/>
	<g>
		<path class="st3" d="M35.2,17.8l10.9,3.1c-4.4,16.3-11.2,33.2-14.5,39.3c-5.2-0.9-7.1-4.5-9.6-5.6C25.4,48.7,31.2,33.5,35.2,17.8z
			"/>
		<path class="st5" d="M32.2,61.4l-0.7-0.1c-3.6-0.6-5.7-2.5-7.4-3.9c-0.9-0.7-1.6-1.4-2.3-1.7l-1-0.4l0.5-1
			c3.3-5.9,9-20.8,13.1-36.6l0.3-1l12.8,3.6l-0.3,1c-4.4,16.4-11.3,33.5-14.6,39.6L32.2,61.4z M23.4,54.3c0.7,0.4,1.3,1,1.9,1.5
			c1.5,1.3,3.1,2.7,5.8,3.3c3.3-6.4,9.6-22.2,13.8-37.5L36,19.1C32.1,34,26.8,47.9,23.4,54.3z"/>
	</g>
	<g>
		<path class="st3" d="M49.3,6.7c-0.4,2.6-1,5.4-1.7,8.2l-10.9-3.1c0.7-3,1.3-6,1.7-8.9L49.3,6.7z"/>
		<path class="st5" d="M48,15.6l-11.9-3.4l0.1-0.5c0.7-3.1,1.3-6.1,1.7-8.9L38,2.3l11.8,4.1l-0.1,0.4c-0.4,2.5-1,5.3-1.7,8.3V15.6z
			 M37.3,11.5l10,2.8c0.6-2.6,1.1-5,1.5-7.3l-9.9-3.4C38.4,6.2,37.9,8.8,37.3,11.5z"/>
	</g>
	<g>
		<path class="st3" d="M25.3,116.9l-11.2-1.8c2.4-16.7,7.2-34.3,9.8-40.8c5.2,1.4,8,3.5,9.9,5C31.2,85.7,27.5,100.8,25.3,116.9z"/>
		<path class="st5" d="M26.2,118L13,115.9l0.1-1c2.5-16.8,7.3-34.6,9.8-41l0.3-0.8l0.9,0.2c5.2,1.4,8.1,3.4,10.3,5.2L35,79l-0.3,0.7
			c-2.5,6.1-6.3,20.9-8.4,37.3L26.2,118z M15.3,114.3l9.2,1.5c2.1-15.5,5.6-29.6,8.2-36.1c-1.5-1.2-4-2.9-8.1-4.1
			C22,82.3,17.7,98.6,15.3,114.3z"/>
	</g>
	<g>
		<path class="st3" d="M12.7,129.5c0.1-2.7,0.3-5.5,0.7-8.4l11.2,1.8c-0.3,3.1-0.5,6.1-0.7,9L12.7,129.5z"/>
		<path class="st5" d="M24.4,132.6l-12.2-2.7v-0.4c0.1-2.6,0.3-5.4,0.7-8.4l0.1-0.5l12.2,1.9v0.5c-0.3,3.1-0.6,6.2-0.7,9L24.4,132.6
			z M13.2,129.1l10.2,2.2c0.1-2.5,0.3-5.2,0.6-8l-10.2-1.6C13.5,124.4,13.3,126.9,13.2,129.1z"/>
	</g>
</g>
</svg>
