<?xml version="1.0" encoding="utf-8"?>
<!-- Generator: Adobe Illustrator 22.0.0, SVG Export Plug-In . SVG Version: 6.00 Build 0)  -->
<svg version="1.1" id="Layer_1" xmlns="http://www.w3.org/2000/svg" xmlns:xlink="http://www.w3.org/1999/xlink" x="0px" y="0px"
	 viewBox="0 0 32 32" style="enable-background:new 0 0 32 32;" xml:space="preserve">
<style type="text/css">
	.st0{display:none;}
	.st1{display:inline;}
	.st2{fill:none;stroke:#000000;stroke-width:4;stroke-linecap:round;stroke-linejoin:round;stroke-miterlimit:10;}
	.st3{fill:#FFFFFF;}
	.st4{fill:#EF564B;}
	.st5{fill:#FFFFFF;stroke:#FFFFFF;stroke-miterlimit:10;}
	.st6{fill:#FCFAFA;}
</style>
<g id="Layer_1_1_" class="st0">
</g>
<g id="Layer_2_1_" class="st0">
	<g class="st1">
		<path class="st2" d="M-5.6-6.3c0,0,40.9-87.8-63.9-110.1c-75.1-11.6-61.5,57.3-61.5,57.3s1.8,15,14.8,27.6"/>
		<path class="st2" d="M-24-24.3c0,0,19.4-46.6-35.3-66.2c-39.9-10.2-46.9,5.4-46.9,5.4s-11.1,16,4.6,32.6"/>
		<path class="st2" d="M-48.4-33.6c0,0,9.6-22.8-20-34.5C-73-70.8-95.6-75.3-94-66"/>
		<path class="st2" d="M-41.5-32.5c5.3,3.1,10.4,6.6,15.4,10.3C-16.3-15-6.8-7.1,0.7,2.5C4.2,7,7.4,11.9,9.3,17.3
			c0.9,2.4,1.4,5,1.6,7.6c0.1,2.8-0.4,5.5-0.8,8.2C7.9,45.6,4.3,58.4-3.5,68.7c-3.9,5.2-8.9,9.7-14.6,13c-6.8,4-14.5,6.3-22.3,7.5
			c-2.3,0.4-4.6,0.6-6.9,0.8l5.8-24.4c4,0.1,8.2-0.7,12-2.1c7.9-2.9,13.8-9,16.1-17.1c1.2-4.3,1.3-8.6,0.2-13s-3.2-8.5-5.6-12.3
			c-5.5-8.5-12.9-15.9-20.7-22.2c-6.4-5.2-13.4-10.3-21-13.6c-0.6-0.3-1.2-0.5-1.9-0.8"/>
		<path class="st2" d="M-64.3-61.3c-3.2,3.3-6.3,6.7-9.2,10.3c-6.5,7.8-12.6,16-17.8,24.7c-5.4,9.1-10.3,19.2-11.6,29.9
			c-0.7,6-0.4,12.4,0.9,18.3c0.9,4.5,2.4,8.9,4.9,12.7c2.2,3.5,5.5,7.1,9.5,8.7c0.1,0,0.1,0,0.2,0.1l10.3-20.7
			c0,0-10.5-10.7,28.8-68.4"/>
		<path class="st2" d="M-94,71.7c0,0-60.3-35.6-22.6-102.7"/>
		<path class="st2" d="M-95.9,109.8c0,0-5.2-51.4,27.6-100"/>
		<path class="st2" d="M-50,21.2c0,0-15.9,19.4-28.6,88.3"/>
		<path class="st2" d="M-55.9,113l14.4-47.4c0.3,1.8,1.3-0.4,1.5-1.1c1.1-3.3,1.6-6.8,2.2-10.2c0.8-4.3,1.7-8.6,0.9-13
			c-1.3-7-5.9-13-10.8-17.9c-5-5-10.8-9.2-16.7-12.9c-3.2-2-6.6-3.9-10-5.6c-0.1,0-0.1-0.1-0.2-0.1"/>
		<path class="st2" d="M-29.2-100.9c0,0,4.4-26.1,2.1-43.7"/>
		<path class="st2" d="M-42.7-109.6c0,0,4-12.5,4.6-29.6"/>
		<path class="st2" d="M-67.5-116c0,0,1.8-8.3,1.5-19.5"/>
	</g>
</g>
<rect class="st3" width="32" height="32"/>
<g id="Layer_3">
	<g>
		<path class="st4" d="M8.5,28.3C6.8,26.8,6,24.8,6,22.2c0-1.6,0.3-3.1,1-4.3c0.7-1.3,1.6-2.3,2.8-3.2C8,13,7.1,11,7.1,8.7
			c0-1.6,0.4-2.9,1.2-4.1c0.8-1.1,1.9-2,3.3-2.6c1.4-0.6,2.9-0.9,4.6-0.9c2.5,0,4.6,0.7,6.3,1.9c1.7,1.3,2.5,3,2.5,5.2
			c0,1.3-0.3,2.5-0.8,3.6C23.5,13,22.8,14,21.8,15c1.3,0.8,2.3,1.8,3.1,2.9c0.8,1.1,1.1,2.5,1.1,4.2c0,2.6-0.9,4.6-2.7,6.2
			c-1.8,1.6-4.3,2.3-7.5,2.3C12.6,30.5,10.2,29.8,8.5,28.3z M19.2,24.8c0.7-0.5,1.1-1.3,1.1-2.3c0-1.1-0.4-1.9-1.2-2.6
			c-0.8-0.7-2-1.3-3.8-2.1l-1.6-0.7c-0.7,0.7-1.2,1.4-1.6,2.2c-0.4,0.8-0.5,1.6-0.5,2.4c0,1.2,0.4,2.2,1.2,2.8c0.8,0.7,1.9,1,3.3,1
			C17.4,25.6,18.4,25.3,19.2,24.8z M19,11.2c0.3-0.7,0.4-1.3,0.4-2c0-1-0.4-1.8-1-2.3C17.7,6.3,16.9,6,16,6c-0.8,0-1.6,0.2-2.2,0.7
			c-0.6,0.4-0.9,1-0.9,1.9c0,1,0.4,1.7,1.2,2.3c0.8,0.6,2,1.3,3.7,2C18.3,12.4,18.7,11.8,19,11.2z"/>
	</g>
	<path id="outline_1_" class="st5" d="M25.1,17.7c-0.7-1.1-1.7-2-2.9-2.8c0.9-0.9,1.6-1.9,2.2-2.9c0.6-1.1,0.9-2.4,0.9-3.7
		c0-2.3-0.9-4.1-2.6-5.4C20.9,1.6,18.8,1,16.2,1c-1.7,0-3.3,0.3-4.7,0.9C10.2,2.5,9,3.4,8.2,4.5C7.3,5.6,6.9,7,6.9,8.7
		c0,2.3,0.9,4.3,2.6,5.9c-1.1,0.9-2,1.9-2.7,3.2c-0.7,1.3-1,2.8-1,4.4c0,2.7,0.9,4.8,2.6,6.3c1.7,1.5,4.2,2.3,7.4,2.3
		c3.2,0,5.8-0.8,7.7-2.4c1.9-1.6,2.8-3.7,2.8-6.3C26.2,20.3,25.8,18.9,25.1,17.7z M23.1,28c-1.8,1.5-4.2,2.3-7.4,2.3
		c-3,0-5.4-0.7-7-2.1c-1.6-1.4-2.5-3.4-2.5-5.9c0-1.6,0.3-3,0.9-4.2c0.6-1.2,1.5-2.2,2.6-3.1l3.5,2.3c-0.6,0.6-1.1,1.3-1.4,2
		c-0.4,0.8-0.5,1.7-0.5,2.5c0,1.3,0.4,2.3,1.3,3c0.8,0.7,2,1.1,3.5,1.1c1.3,0,2.4-0.3,3.2-0.9s1.1-1.4,1.1-2.5c0-1.1-0.4-2-1.3-2.7
		c-0.8-0.7-2.1-1.4-3.8-2.1L13.8,17l-3.8-2.5c-1.7-1.6-2.6-3.6-2.6-5.8c0-1.6,0.4-2.9,1.2-4c0.8-1.1,1.9-1.9,3.2-2.5
		c1.3-0.6,2.9-0.9,4.5-0.9c2.5,0,4.5,0.6,6.1,1.9c1.6,1.2,2.4,2.9,2.4,5c0,1.2-0.3,2.4-0.8,3.5c-0.5,1.1-1.3,2-2.2,2.9l-3.6-1.9
		c0.4-0.5,0.8-1,1-1.6l0,0c0.3-0.7,0.4-1.4,0.4-2.1c0-1.1-0.4-1.9-1.1-2.5c-0.7-0.5-1.6-0.8-2.6-0.8c-0.9,0-1.7,0.2-2.3,0.7
		c-0.7,0.4-1,1.1-1,2c0,1,0.4,1.9,1.3,2.5c0.8,0.6,2.1,1.3,3.8,2l4,2c1.3,0.8,2.3,1.8,3,2.8c0.7,1.1,1.1,2.5,1.1,4.1
		C25.7,24.5,24.8,26.5,23.1,28z M15.2,18.1c1.7,0.8,2.9,1.4,3.7,2c0.8,0.6,1.1,1.4,1.1,2.4c0,0.9-0.3,1.6-1,2.1
		c-0.7,0.5-1.7,0.8-2.9,0.8c-1.4,0-2.5-0.3-3.2-1c-0.8-0.7-1.1-1.5-1.1-2.7c0-0.8,0.2-1.5,0.5-2.3c0.3-0.7,0.8-1.4,1.4-2L15.2,18.1z
		 M14.2,10.7c-0.8-0.5-1.1-1.3-1.1-2.1c0-0.8,0.2-1.3,0.8-1.7c0.6-0.4,1.3-0.6,2-0.6c0.9,0,1.7,0.2,2.3,0.7c0.7,0.5,0.9,1.2,0.9,2.2
		c0,0.7-0.1,1.3-0.4,1.9c-0.2,0.6-0.6,1.1-1,1.5C16.1,11.9,14.9,11.2,14.2,10.7z"/>
	<g>
		<path class="st4" d="M18.4-2.9l3.9,1.1c-1.6,5.9-4,12-5.2,14.1c-1.9-0.3-2.6-1.6-3.5-2C14.9,8.2,17,2.8,18.4-2.9z"/>
		<path class="st6" d="M17.4,12.8l-0.2,0c-1.3-0.2-2-0.9-2.7-1.4c-0.3-0.2-0.6-0.5-0.8-0.6l-0.4-0.1l0.2-0.4
			c1.2-2.1,3.2-7.5,4.7-13.2l0.1-0.4L22.9-2l-0.1,0.4c-1.6,5.9-4.1,12.1-5.3,14.3L17.4,12.8z M14.2,10.3c0.2,0.1,0.5,0.4,0.7,0.5
			c0.5,0.5,1.1,1,2.1,1.2c1.2-2.3,3.5-8,5-13.5l-3.2-0.9C17.3,2.9,15.4,8,14.2,10.3z"/>
	</g>
	<g>
		<path class="st4" d="M23.5-6.9c-0.1,0.9-0.4,1.9-0.6,2.9L19-5c0.2-1.1,0.5-2.2,0.6-3.2L23.5-6.9z"/>
		<path class="st6" d="M23-3.7l-4.3-1.2l0-0.2c0.2-1.1,0.5-2.2,0.6-3.2l0-0.2L23.7-7l0,0.1c-0.1,0.9-0.4,1.9-0.6,3L23-3.7L23-3.7z
			 M19.2-5.2l3.6,1c0.2-0.9,0.4-1.8,0.5-2.6L19.8-8C19.6-7.1,19.4-6.1,19.2-5.2z"/>
	</g>
	<g>
		<path class="st4" d="M14.9,32.8l-4-0.7c0.9-6,2.6-12.3,3.5-14.7c1.9,0.5,2.9,1.3,3.6,1.8C17,21.6,15.7,27,14.9,32.8z"/>
		<path class="st6" d="M15.2,33.2l-4.7-0.8l0-0.4c0.9-6,2.6-12.5,3.5-14.8l0.1-0.3l0.3,0.1c1.9,0.5,2.9,1.2,3.7,1.9l0.2,0.2
			l-0.1,0.2c-0.9,2.2-2.3,7.5-3,13.4L15.2,33.2z M11.3,31.9l3.3,0.5c0.8-5.6,2-10.7,2.9-13c-0.5-0.4-1.4-1-2.9-1.5
			C13.7,20.3,12.1,26.2,11.3,31.9z"/>
	</g>
	<g>
		<path class="st4" d="M10.3,37.3c0-1,0.1-2,0.2-3l4,0.7c-0.1,1.1-0.2,2.2-0.2,3.2L10.3,37.3z"/>
		<path class="st6" d="M14.5,38.4l-4.4-1v-0.1c0-0.9,0.1-1.9,0.2-3l0-0.2l4.4,0.7V35c-0.1,1.1-0.2,2.2-0.2,3.2L14.5,38.4z
			 M10.5,37.2l3.7,0.8c0-0.9,0.1-1.9,0.2-2.9l-3.7-0.6C10.6,35.5,10.5,36.4,10.5,37.2z"/>
	</g>
</g>
</svg>
