<?xml version="1.0" encoding="utf-8"?>
<!-- Generator: Adobe Illustrator 22.0.0, SVG Export Plug-In . SVG Version: 6.00 Build 0)  -->
<svg version="1.1" id="Layer_1" xmlns="http://www.w3.org/2000/svg" xmlns:xlink="http://www.w3.org/1999/xlink" x="0px" y="0px"
	 viewBox="0 0 24 24" style="enable-background:new 0 0 24 24;" xml:space="preserve">
<style type="text/css">
	.st0{fill:#8FACE5;}
	.st1{fill:none;stroke:#FAFCFF;stroke-miterlimit:10;}
	.st2{fill:none;stroke:#F7F8F9;stroke-miterlimit:10;}
</style>
<rect x="4" y="5.9" class="st0" width="16.1" height="12.1"/>
<polygon class="st1" points="12,11 4,6 20,6 "/>
<polygon class="st2" points="12,13 20,8 20,18 4,18 4,8 "/>
<path class="st0" d="M22,6c0-1.1-0.9-2-2-2H4C2.9,4,2,4.9,2,6v12c0,1.1,0.9,2,2,2h16c1.1,0,2-0.9,2-2V6 M20,6l-8,5L4,6H20 M20,18H4
	V8l8,5l8-5V18z"/>
<g id="Layer_2">
</g>
</svg>
