<?xml version="1.0" encoding="utf-8"?>
<!-- Generator: Adobe Illustrator 22.0.0, SVG Export Plug-In . SVG Version: 6.00 Build 0)  -->
<svg version="1.1" id="Layer_1" xmlns="http://www.w3.org/2000/svg" xmlns:xlink="http://www.w3.org/1999/xlink" x="0px" y="0px"
	 viewBox="0 0 20.7 16.2" style="enable-background:new 0 0 20.7 16.2;" xml:space="preserve">
<style type="text/css">
	.st0{fill:#8FACE5;}
	.st1{fill:none;stroke:#FAFCFF;stroke-miterlimit:10;}
	.st2{fill:none;stroke:#F7F8F9;stroke-miterlimit:10;}
</style>
<rect x="2.4" y="1.9" class="st0" width="16.1" height="12.1"/>
<polygon class="st1" points="10.4,7 2.4,2 18.4,2 "/>
<polygon class="st2" points="10.4,9 18.4,4 18.4,14 2.4,14 2.4,4 "/>
<path class="st0" d="M20.4,2c0-1.1-0.9-2-2-2h-16c-1.1,0-2,0.9-2,2v12c0,1.1,0.9,2,2,2h16c1.1,0,2-0.9,2-2V2 M18.4,2l-8,5l-8-5H18.4
	 M18.4,14h-16V4l8,5l8-5V14z"/>
<g id="Layer_2_1_">
</g>
</svg>
